<?xml version="1.0" encoding="UTF-8" standalone="no"?>
<!-- Created with Inkscape (http://www.inkscape.org/) -->

<svg
   version="1.1"
   id="svg1"
   width="793.33331"
   height="1122.6667"
   viewBox="0 0 793.33331 1122.6667"
   sodipodi:docname="mudkip.ps"
   xmlns:inkscape="http://www.inkscape.org/namespaces/inkscape"
   xmlns:sodipodi="http://sodipodi.sourceforge.net/DTD/sodipodi-0.dtd"
   xmlns="http://www.w3.org/2000/svg"
   xmlns:svg="http://www.w3.org/2000/svg">
  <defs
     id="defs1" />
  <sodipodi:namedview
     id="namedview1"
     pagecolor="#ffffff"
     bordercolor="#000000"
     borderopacity="0.25"
     inkscape:showpageshadow="2"
     inkscape:pageopacity="0.0"
     inkscape:pagecheckerboard="0"
     inkscape:deskcolor="#d1d1d1">
    <inkscape:page
       x="0"
       y="0"
       inkscape:label="1"
       id="page1"
       width="793.33331"
       height="1122.6667"
       margin="0"
       bleed="0" />
  </sodipodi:namedview>
  <g
     id="g1"
     inkscape:groupmode="layer"
     inkscape:label="1">
    <path
       id="path1"
       d="m 1800,2300 40,-30 20,-40 30,-70 10,-40 10,-30 10,-30 v -20 l 10,-30 v -40 -50 -60 -50 -220 l 50,-20 60,-20 60,-40 60,-50 20,-20 60,-60 60,-80 30,-70 20,-50 h 100 50 30 l 20,-10 v -10 l -20,-30 -20,-30 -30,-40 -20,-20 v -20 -10 l 20,-20 20,-30 h 10 l 20,-20 20,-30 v -10 h 10 l -10,-10 -30,-10 -20,-10 h -40 -30 l -30,-10 10,-90 v -40 -30 -10 l -10,-10 h -20 l -40,20 -50,30 -20,20 -20,20 -20,10 h -10 v -10 l -20,-20 -30,-20 -40,-30 -30,-20 -30,-20 -20,-10 -40,-10 -40,-10 -10,-10 -50,-10 -10,-150 v -60 -40 -30 l -10,-20 v -20 l -10,-10 -30,-30 -20,-20 h -10 l -30,-10 h -40 -40 -50 -10 l -30,10 -20,-10 -20,-10 -20,-10 h -20 -30 -40 -20 -50 l -40,10 -30,10 -10,10 -20,-10 -20,-10 -40,-10 h -50 -50 l -40,10 -30,10 -10,20 -20,10 h -30 -10 -30 -50 -60 l -60,10 h -70 l -70,10 h -60 l -60,10 h -40 l -20,10 -60,20 -30,20 -20,30 h -10 v 40 20 h 40 v -10 h 30 30 20 50 40 l 40,-10 30,-10 v -10 h -30 -50 -30 -50 -40 -20 -10 v -20 l 20,-10 30,-20 60,-10 60,-10 80,-10 90,-10 h 90 80 l 100,-10 10,70 h 30 l 10,-50 20,-40 h 10 l 30,-20 50,-10 40,10 40,10 10,10 10,10 v 20 30 10 l -10,50 -10,50 -20,30 -10,30 -20,30 v 10 l 10,10 20,-20 20,-10 20,-20 10,-10 v 10 l 10,20 10,-10 v -20 -40 l 10,-20 v -60 -50 l 10,-30 10,-20 h 10 l 20,-10 30,-10 h 40 10 40 30 20 l 10,10 h 10 l 10,10 v 20 l 10,20 v 30 30 10 h 50 v -20 -30 -30 -10 l 10,-10 20,-10 h 40 40 30 30 l 10,10 10,10 20,20 10,30 10,30 v 40 50 50 l 10,110 -40,-10 h -30 l -10,-10 -30,-60 -40,-60 -30,-40 -20,-20 -20,-20 -20,-20 h -50 v 50 40 l -10,30 -30,40 -10,10 -10,30 -10,20 v 10 h 30 v -20 l 20,-30 20,-30 20,-40 10,-40 10,-10 v -10 l 20,20 20,10 20,30 30,40 10,10 20,40 v 20 10 h -30 -20 l -50,10 h -40 -20 -30 -10 v -10 h -30 v 10 l -10,10 -20,10 -30,20 h -10 l -30,20 -30,10 -10,10 h -10 l -20,-20 -20,-30 v -10 l -20,-30 -20,-20 -10,-10 h -30 l -20,10 -10,30 v 20 l -20,30 -10,20 -20,50 -20,-60 -20,-70 -10,-60 -10,-30 v -30 l -10,-10 v -10 l -10,-30 -10,-20 -10,-60 h -30 v 10 40 40 l 10,20 v 10 l -10,10 -20,10 h -30 l -50,10 -30,10 -140,10 H 630 l -40,-10 h -40 l -30,-10 -10,-10 h 20 l 10,-10 h 20 40 l 30,-10 h 30 l 20,-10 10,-10 -20,-10 h -20 l -30,10 h -40 -50 l -40,10 h -40 l -20,-10 h -10 l -10,-10 -10,-20 h -40 v 10 l 20,30 30,30 50,30 70,20 70,10 90,10 h 90 l 90,-10 90,-10 80,-20 h 10 10 l 10,20 v 40 l 10,40 20,50 10,20 10,30 v 20 l -20,10 h -30 -20 l -30,10 h -20 v 10 20 l 10,30 20,40 40,60 -40,40 -30,30 -30,20 -10,10 -30,30 v 20 h 50 l 10,-10 10,-20 30,-20 40,-40 30,-20 10,-30 -10,-20 -10,-30 -20,-30 -20,-30 v -20 l 10,-10 h 20 v -10 h 50 l 40,-10 20,-10 10,-20 10,-30 10,-20 10,-30 10,-30 10,-10 v -10 l 10,10 20,30 30,40 20,30 10,20 h 50 v -10 -10 l 30,-10 30,-20 40,-10 50,-20 40,-10 h 20 l 80,-10 h 60 70 40 l 90,20 80,30 80,40 40,30 30,20 10,20 10,20 v 20 l -10,20 -10,40 v 30 10 30 h 40 v -30 -30 -30 l 20,-30 20,-20 20,-30 30,-20 30,-30 30,-20 h 10 v 30 30 10 50 30 l 10,10 30,10 30,10 60,10 -30,30 -30,30 -20,20 -10,20 10,20 10,20 20,30 20,30 20,20 v 10 h -10 -30 -30 -10 l -50,-10 -40,-10 -30,-20 -30,-40 -30,-40 -20,-60 h -40 l -10,10 h -10 -10 -40 l -40,10 h -60 -70 -80 -90 l -360,10 10,-50 10,-30 v -50 -50 l -10,-40 -10,-20 -10,-20 h -50 l 10,20 20,30 10,30 v 20 20 70 l -30,60 -50,50 -50,40 -50,20 h -50 -20 -40 l -40,-10 -40,-10 -20,-10 h -10 -50 l 10,20 10,10 30,10 40,10 70,20 10,40 h 40 v -20 l 10,-10 20,-10 h 50 l 60,-30 50,-40 40,-30 350,-10 h 90 80 70 60 60 30 20 30 20 l 10,10 10,20 30,50 50,40 20,10 v 20 h 10 l -10,10 -10,20 -10,40 h -10 l -40,70 -60,70 -70,60 -70,60 -50,20 -40,20 h -20 l -10,-10 v -30 l -10,-20 -10,-10 -10,-10 -10,10 v 30 l 10,40 10,70 v 80 l 10,80 v 80 60 20 l -10,60 -10,60 -20,60 -10,50 -10,30 -10,10 -10,30 -10,-30 v -20 l -10,-40 v -40 -20 -50 l -10,-40 v -20 l -10,-10 h -10 v 20 30 50 40 l 10,50 v 40 40 10 l 10,10 -10,10 -30,10 -20,10 -20,-10 h -10 l -10,-10 v -20 l -10,-20 v -40 l -10,-60 v -40 -50 l -10,-30 v -20 l -10,-10 h -10 v 10 30 20 30 l 10,50 v 50 50 20 h -10 l -20,-40 -20,-50 -20,-60 -10,-60 -10,-30 v -60 -80 -90 -40 -170 l -50,-20 -60,-20 -50,-30 -50,-30 -50,-40 -20,-20 -50,-50 -30,-40 -30,-40 v -20 l -20,-40 -10,-30 h -40 l 10,30 30,70 40,60 50,70 10,10 70,60 70,50 70,30 20,10 40,10 10,10 10,10 v 10 l -10,30 v 40 50 70 60 60 l 10,60 v 50 l 10,30 20,80 30,70 30,50 40,40 40,20 h 20 50"
       style="fill:#000000;fill-opacity:1;fill-rule:nonzero;stroke:none"
       transform="matrix(0.13333333,0,0,-0.13333333,0,1122.6667)" />
    <path
       id="path2"
       d="m 2210,1180 10,-10 -10,-30 -20,-10 h -10 l -10,10 v 30 10 10 h 20"
       style="fill:#000000;fill-opacity:1;fill-rule:nonzero;stroke:none"
       transform="matrix(0.13333333,0,0,-0.13333333,0,1122.6667)" />
    <path
       id="path3"
       d="m 1370,1180 v -10 l -10,-20 h -10 v -10 l -20,10 v 10 l -10,20 10,10 h 20 10"
       style="fill:#000000;fill-opacity:1;fill-rule:nonzero;stroke:none"
       transform="matrix(0.13333333,0,0,-0.13333333,0,1122.6667)" />
  </g>
</svg>
